<?xml version="1.0" encoding="utf-8"?>
<!-- Generator: Adobe Illustrator 18.1.1, SVG Export Plug-In . SVG Version: 6.00 Build 0)  -->
<svg version="1.1" id="Layer_1" xmlns="http://www.w3.org/2000/svg" xmlns:xlink="http://www.w3.org/1999/xlink" x="0px" y="0px"
	 width="22px" height="17.92px" viewBox="0 0 22 17.92" style="enable-background:new 0 0 22 17.92;" xml:space="preserve">
<style type="text/css">
	.st0{fill:#8DB161;}
</style>
<g>
	<path class="st0" d="M21.81,1.89C21.62,1.63,21.32,1.48,21,1.48H5.7L1.31,0.05C0.78-0.12,0.22,0.17,0.05,0.69
		c-0.17,0.53,0.12,1.09,0.64,1.26l4.06,1.32l2.79,8.6c0.13,0.41,0.52,0.69,0.95,0.69h9.55c0.43,0,0.82-0.28,0.95-0.69l2.95-9.09
		C22.05,2.48,22,2.15,21.81,1.89z M19.62,3.48L18.8,6.02H7.75L6.92,3.48H19.62z M17.32,10.56h-8.1L8.4,8.02h9.75L17.32,10.56z"/>
	<circle class="st0" cx="10.12" cy="15.92" r="2"/>
	<circle class="st0" cx="16.25" cy="15.92" r="2"/>
</g>
</svg>
