<?xml version="1.0" encoding="utf-8"?>
<!-- Generator: Adobe Illustrator 18.1.1, SVG Export Plug-In . SVG Version: 6.00 Build 0)  -->
<svg version="1.1" id="Layer_1" xmlns="http://www.w3.org/2000/svg" xmlns:xlink="http://www.w3.org/1999/xlink" x="0px" y="0px"
	 width="186.72px" height="40.96px" viewBox="0 0 186.72 40.96" style="enable-background:new 0 0 186.72 40.96;"
	 xml:space="preserve">
<style type="text/css">
	.st0{fill:#8DB162;}
	.st1{fill:#CB7759;}
	.st2{fill:#C35EA0;}
	.st3{fill:#5A8BCA;}
</style>
<path class="st0" d="M30.01,10.99h-0.99c0.29-1.73,0.44-3.02,0.44-3.89c0-1.32-0.26-2.41-0.77-3.27c-0.56-0.95-1.23-1.61-2.02-1.99
	c-0.79-0.37-1.77-0.56-2.92-0.56c-2.36,0-4.57,0.98-6.62,2.93c-2.06,1.96-3.7,4.56-4.93,7.81s-1.85,6.73-1.85,10.44
	c0,3.03,0.52,5.28,1.55,6.76c1.03,1.47,2.48,2.21,4.34,2.21c1.01,0,2.05-0.23,3.11-0.69c1.06-0.46,1.97-1.1,2.74-1.92
	c0.79-0.85,1.48-1.79,2.07-2.83c0.59-1.04,1.25-2.47,2-4.29h0.99c-1.42,5.2-2.31,8.8-2.66,10.81h-0.99
	c0.09-0.64,0.13-1.16,0.13-1.54c0-0.76-0.19-1.14-0.57-1.14c-0.23,0-0.54,0.13-0.92,0.4c-2.81,1.95-5.81,2.92-8.99,2.92
	c-4.47,0-7.77-1-9.92-2.99C1.07,28.15,0,25.31,0,21.6c0-3.6,0.99-7.07,2.98-10.39c1.98-3.33,4.72-6.02,8.21-8.1
	C14.67,1.04,18.54,0,22.81,0c1.64,0,2.97,0.26,3.98,0.78c1.01,0.52,1.9,1.23,2.68,2.14c0.22,0.26,0.44,0.4,0.66,0.4
	c0.56,0,1.16-0.89,1.82-2.68h0.94C31.9,3.23,30.94,6.68,30.01,10.99z"/>
<path class="st0" d="M48.89,19.01c-1.42-0.79-2.56-1.78-3.41-2.98c-0.85-1.19-1.27-2.47-1.27-3.83c0-1.13,0.31-2.02,0.92-2.69
	c0.62-0.67,1.48-1,2.59-1c2.29,0,3.43,1.46,3.43,4.37c0,1.74-0.4,3.77-1.2,6.06c-0.8,2.3-1.88,4.63-3.23,6.99
	c-1.35,2.36-2.84,4.49-4.45,6.39c-1.89,2.24-3.86,4.06-5.92,5.46c-2.06,1.4-4.11,2.34-6.14,2.82c-1.01,0.23-1.89,0.35-2.64,0.35
	c-1.2,0-2.12-0.26-2.77-0.78c-0.64-0.52-0.97-1.25-0.97-2.19c0-0.6,0.15-1.15,0.44-1.65c0.29-0.5,0.71-0.9,1.25-1.2
	s1.18-0.45,1.91-0.45c2.15,0,3.99,1.33,5.52,3.98c1.86-0.83,3.61-1.96,5.25-3.38l-3.67-22.28c-0.15-0.78-0.27-1.29-0.38-1.55
	c-0.11-0.26-0.3-0.38-0.56-0.38c-0.21,0-0.38,0.07-0.54,0.22c-0.15,0.15-0.33,0.41-0.52,0.8c-0.19,0.39-0.44,0.99-0.75,1.81
	l-0.94,2.53h-0.86l1.12-3.3c0.6-1.73,1.37-2.93,2.32-3.61c0.94-0.68,2.11-1.02,3.5-1.02c1.51,0,2.69,0.4,3.56,1.19
	c0.86,0.79,1.44,2.18,1.74,4.17l1.98,14.41C46.23,25.22,47.79,22.13,48.89,19.01z"/>
<path class="st1" d="M65.5,0.77c1.22,0,2.44-0.01,3.66-0.04c1.22-0.03,2.24-0.04,3.04-0.04c7.27,0,10.9,2.03,10.9,6.09
	c0,1.61-0.55,3.09-1.66,4.44c-1.11,1.35-2.72,2.44-4.83,3.26c-2.12,0.83-4.63,1.29-7.55,1.37c2.48-0.03,4.61,0.24,6.42,0.81
	s3.18,1.37,4.12,2.4c0.95,1.03,1.42,2.21,1.42,3.54c0,2.08-0.63,3.86-1.88,5.35c-1.25,1.49-3.06,2.62-5.42,3.4
	c-2.36,0.78-5.17,1.16-8.44,1.16c-0.67,0-1.74-0.02-3.2-0.07c-1.46-0.04-3.05-0.07-4.78-0.07c-3.41,0-6.06,0.04-7.95,0.13l0.18-0.9
	c1.08-0.04,1.89-0.16,2.43-0.35c0.54-0.19,0.96-0.54,1.29-1.05c0.32-0.51,0.63-1.33,0.92-2.46L60.1,5.41
	c0.26-0.98,0.4-1.71,0.4-2.18c0-0.59-0.22-1.01-0.66-1.26c-0.44-0.26-1.24-0.4-2.4-0.43l0.24-0.9C59.52,0.73,62.13,0.77,65.5,0.77z
	 M62.95,29.77c0,1.13,0.59,1.69,1.78,1.69c1.26,0,2.41-0.47,3.44-1.42c1.03-0.94,1.84-2.17,2.43-3.68c0.59-1.51,0.88-3.07,0.88-4.68
	c0-1.57-0.33-2.85-1-3.85c-0.67-1-1.77-1.49-3.31-1.49h-0.86L63.3,27.73C63.07,28.61,62.95,29.29,62.95,29.77z M71.04,14.13
	c1.07-0.97,1.88-2.23,2.42-3.79c0.54-1.56,0.81-3.22,0.81-4.98c0-1.22-0.18-2.16-0.53-2.82c-0.35-0.67-1.01-1-1.98-1
	c-0.44,0-0.79,0.09-1.05,0.26s-0.49,0.49-0.69,0.93c-0.2,0.45-0.41,1.11-0.65,1.99l-2.86,10.85h0.66
	C68.68,15.58,69.97,15.1,71.04,14.13z"/>
<path class="st2" d="M109.53,24.98l-1.27,3.52c-0.57,1.6-1.42,2.77-2.55,3.52c-1.13,0.75-2.42,1.12-3.87,1.12
	c-1.99,0-3.33-0.59-4.02-1.76c-0.35-0.6-0.53-1.33-0.53-2.17c0-0.72,0.12-1.51,0.35-2.37l1.01-3.87c-1.14,2.74-2.24,4.84-3.3,6.32
	c-1.05,1.47-2.13,2.48-3.22,3.03c-1.09,0.55-2.35,0.82-3.77,0.82c-1.36,0-2.41-0.32-3.13-0.96c-0.73-0.64-1.09-1.57-1.09-2.8
	c0-0.85,0.19-1.87,0.57-3.05l4.37-13.36c0.15-0.44,0.22-0.8,0.22-1.08c0-0.54-0.26-0.81-0.77-0.81c-0.88,0-1.67,0.94-2.37,2.83
	l-0.94,2.53h-0.86l1.12-3.3c1.08-3.09,3.23-4.64,6.44-4.64c1.51,0,2.68,0.36,3.5,1.07c0.83,0.71,1.24,1.77,1.24,3.18
	c0,1.04-0.22,2.21-0.66,3.52l-3.87,11.65c-0.25,0.79-0.37,1.38-0.37,1.76c0,0.45,0.15,0.68,0.46,0.68c0.73,0,1.66-0.92,2.79-2.75
	c1.13-1.83,2.29-4.21,3.49-7.13c1.2-2.92,2.26-5.94,3.16-9.04l0.59-2.29c3.31-0.04,6.03-0.26,8.15-0.64l-5.67,20.17
	c-0.19,0.62-0.29,1.05-0.29,1.3c0,0.4,0.23,0.59,0.68,0.59c0.47,0,0.9-0.21,1.3-0.64c0.4-0.43,0.79-1.16,1.19-2.2l1.03-2.75H109.53z
	"/>
<path class="st3" d="M130.34,19.01c-1.42-0.79-2.56-1.78-3.41-2.98c-0.85-1.19-1.27-2.47-1.27-3.83c0-1.13,0.31-2.02,0.92-2.69
	c0.62-0.67,1.48-1,2.59-1c2.29,0,3.43,1.46,3.43,4.37c0,1.74-0.4,3.77-1.2,6.06c-0.8,2.3-1.88,4.63-3.23,6.99
	c-1.36,2.36-2.84,4.49-4.45,6.39c-1.89,2.24-3.86,4.06-5.92,5.46c-2.06,1.4-4.11,2.34-6.14,2.82c-1.01,0.23-1.89,0.35-2.64,0.35
	c-1.2,0-2.12-0.26-2.77-0.78c-0.64-0.52-0.97-1.25-0.97-2.19c0-0.6,0.15-1.15,0.44-1.65c0.29-0.5,0.71-0.9,1.25-1.2
	c0.54-0.3,1.18-0.45,1.91-0.45c2.15,0,3.99,1.33,5.52,3.98c1.86-0.83,3.61-1.96,5.25-3.38l-3.67-22.28
	c-0.15-0.78-0.28-1.29-0.38-1.55c-0.11-0.26-0.3-0.38-0.56-0.38c-0.21,0-0.38,0.07-0.54,0.22c-0.15,0.15-0.33,0.41-0.52,0.8
	c-0.19,0.39-0.44,0.99-0.75,1.81l-0.94,2.53h-0.86l1.12-3.3c0.6-1.73,1.37-2.93,2.32-3.61c0.95-0.68,2.11-1.02,3.5-1.02
	c1.51,0,2.7,0.4,3.56,1.19s1.44,2.18,1.74,4.17l1.98,14.41C127.68,25.22,129.24,22.13,130.34,19.01z"/>
<path class="st3" d="M133.57,27.7c0.44-0.73,1.04-1.29,1.8-1.7s1.62-0.62,2.57-0.62c1.16,0,2.04,0.26,2.65,0.78
	c0.61,0.52,0.91,1.29,0.91,2.3c0,0.79-0.23,1.55-0.68,2.26c-0.45,0.72-1.07,1.3-1.85,1.75c-0.78,0.45-1.63,0.67-2.55,0.67
	c-1.16,0-2.03-0.25-2.63-0.76c-0.59-0.5-0.89-1.24-0.89-2.21C132.91,29.25,133.13,28.42,133.57,27.7z"/>
<path class="st3" d="M155.06,29.53c0,0.69,0.32,1.03,0.95,1.03c0.59,0,1.18-0.33,1.79-0.98c0.61-0.65,1.09-1.47,1.46-2.45l0.7-1.93
	h0.86l-0.86,2.48c-0.59,1.73-1.49,3.07-2.72,4.02s-2.7,1.43-4.42,1.43c-1.67,0-2.92-0.44-3.75-1.32s-1.24-2.06-1.24-3.56
	c0-0.88,0.15-1.84,0.44-2.88l4.35-15.12h-4.13l0.22-0.9h4.17l1.96-6.83c3.19-0.04,5.92-0.26,8.2-0.64l-2.2,7.47h4.48l-0.13,0.9
	h-4.61l-5.38,18.41C155.11,29,155.06,29.28,155.06,29.53z"/>
<path class="st0" d="M171.78,8.5c1.48,0,2.54,0.4,3.2,1.2c0.65,0.8,0.98,1.83,0.98,3.09c0,0.18-0.01,0.45-0.04,0.83
	c0.59-1.27,1.2-2.29,1.83-3.03c0.64-0.75,1.33-1.28,2.07-1.6c0.74-0.32,1.59-0.48,2.56-0.48c0.91,0,1.69,0.19,2.34,0.57
	c0.65,0.38,1.15,0.9,1.49,1.57c0.34,0.67,0.52,1.41,0.52,2.23c0,1-0.22,1.93-0.66,2.79s-1.04,1.55-1.81,2.07
	c-0.77,0.51-1.64,0.77-2.6,0.77c-1.1,0-1.94-0.29-2.52-0.86s-0.87-1.41-0.87-2.53c0-0.86,0.22-1.69,0.67-2.48
	c0.45-0.79,1.05-1.46,1.8-2.01c0.75-0.55,1.57-0.9,2.45-1.07c-0.31-0.1-0.52-0.15-0.64-0.15c-0.97,0-1.83,0.19-2.6,0.58
	c-0.77,0.39-1.63,1.34-2.58,2.87s-1.94,3.86-2.97,7.01l-3.32,12.63h-7.98l5.49-19.53c0.13-0.48,0.2-0.87,0.2-1.16
	c0-0.48-0.2-0.73-0.59-0.73c-0.47,0-0.9,0.21-1.3,0.64s-0.79,1.16-1.19,2.2l-1.03,2.75h-0.86l1.25-3.52
	C166.21,10.05,168.44,8.5,171.78,8.5z"/>
</svg>
