<?xml version="1.0" encoding="utf-8"?>
<!-- Generator: Adobe Illustrator 17.0.0, SVG Export Plug-In . SVG Version: 6.00 Build 0)  -->
<!DOCTYPE svg PUBLIC "-//W3C//DTD SVG 1.1//EN" "http://www.w3.org/Graphics/SVG/1.1/DTD/svg11.dtd">
<svg version="1.1" id="Capa_1" xmlns="http://www.w3.org/2000/svg" xmlns:xlink="http://www.w3.org/1999/xlink" x="0px" y="0px"
	 width="64px" height="64px" viewBox="0 0 64 64" enable-background="new 0 0 64 64" xml:space="preserve">
<g>
	<circle opacity="0.2" cx="43" cy="27" r="1"/>
	<path opacity="0.2" d="M32,5C17.089,5,5,17.088,5,32c0,14.912,12.089,27,27,27c14.912,0,27-12.088,27-27C59,17.088,46.912,5,32,5z
		 M6.688,32C6.688,18.021,18.021,6.688,32,6.688c6.63,0,12.662,2.552,17.174,6.724L40.586,22H39v-1c0-2.209-1.791-4-4-4h-6
		c-2.209,0-4,1.791-4,4v1h-5c-2.209,0-4,1.791-4,4v12c0,2.209,1.791,4,4,4h0.586l-7.174,7.174C9.24,44.662,6.688,38.63,6.688,32z
		 M28,32c0-2.209,1.791-4,4-4c0.74,0,1.425,0.215,2.02,0.566l-5.454,5.454C28.215,33.425,28,32.74,28,32z M36,32
		c0,2.209-1.791,4-4,4c-0.74,0-1.425-0.215-2.02-0.566l5.454-5.454C35.785,30.575,36,31.26,36,32z M28.528,36.887
		C29.508,37.585,30.705,38,32,38c3.314,0,6-2.688,6-6c0-1.295-0.415-2.492-1.113-3.473L41.414,24H44c1.104,0,2,0.896,2,2v12
		c0,1.104-0.896,2-2,2H25.414L28.528,36.887z M35.473,27.113C34.492,26.415,33.296,26,32,26c-3.313,0-6,2.687-6,6
		c0,1.295,0.415,2.492,1.113,3.472L22.586,40H20c-1.104,0-2-0.896-2-2V26c0-1.104,0.896-2,2-2h18.586L35.473,27.113z M27,22v-1
		c0-1.104,0.896-2,2-2h6c1.104,0,2,0.896,2,2v1H27z M32,57.313c-6.63,0-12.662-2.552-17.174-6.724L23.414,42H44c2.209,0,4-1.791,4-4
		V26c0-2.209-1.791-4-4-4h-0.586l7.174-7.174C54.76,19.338,57.313,25.37,57.313,32C57.313,45.979,45.979,57.313,32,57.313z"/>
</g>
</svg>
